<?xml version="1.0" encoding="UTF-8"?>
<svg xmlns="http://www.w3.org/2000/svg" width="60" height="60" viewBox="0 0 60 60">
  <path d="M50.99 0c-1 0-2 0-2.99.05C44.08.05 40.94.15 37.97.36c-2.97.21-5.97.62-8.07 1.45C24.08 3.05 20.17 5.23 16.1 8.85c-4.07 3.62-7.35 8.5-9.07 14.02S4.98 34.1 4.98 40 5.1 51.9 6.66 57.13c1.56 5.23 4.57 9.97 8.52 13.45 3.95 3.48 8.85 5.6 13.85 6.14 5 .54 10.12-.5 14.56-1.73l5.04-1.78c1.67-.59 3.33-1.18 5-1.72l10.01-3.32L75 63.84V42.24L62.5 38.6l-12.5-3.64V25l-12.5-3.64L25 17.72V0H50.99z" fill="#fff" fill-opacity=".2" fill-rule="evenodd"/>
</svg>
